<?xml version="1.0" encoding="iso-8859-1"?>
<!-- Uploaded to: SVG Repo, www.svgrepo.com, Generator: SVG Repo Mixer Tools -->
<!DOCTYPE svg PUBLIC "-//W3C//DTD SVG 1.1//EN" "http://www.w3.org/Graphics/SVG/1.1/DTD/svg11.dtd">
<svg fill="#ffff" height="16px" width="16px" version="1.1" id="Capa_1" xmlns="http://www.w3.org/2000/svg" xmlns:xlink="http://www.w3.org/1999/xlink" 
	 viewBox="0 0 69.45 69.45" xml:space="preserve">
<path d="M67.95,54.666H52.791l-6.551-8.919c-0.282-0.385-0.732-0.612-1.209-0.612h-9.745V30.41l0.924,0.655
	c0.258,0.183,0.562,0.276,0.867,0.276c0.235,0,0.472-0.055,0.688-0.167c0.499-0.257,0.812-0.771,0.812-1.333v-4
	c0-0.486-0.235-0.942-0.633-1.224l-6.833-4.844v-4.656c0-0.829-0.672-1.5-1.5-1.5c-0.828,0-1.5,0.671-1.5,1.5v2.529L20.23,12.06
	c-0.519-0.368-1.215-0.368-1.734,0L0.782,24.618c-0.398,0.281-0.633,0.737-0.633,1.224v4c0,0.561,0.313,1.075,0.811,1.333
	c0.498,0.258,1.1,0.215,1.556-0.109l0.923-0.654v14.725H1.5c-0.828,0-1.5,0.671-1.5,1.5v9.53c0,0.829,0.672,1.5,1.5,1.5h50.516
	c0.006,0,0.011,0,0.017,0c0.006,0,0.012,0,0.017,0h15.9c0.828,0,1.5-0.671,1.5-1.5C69.45,55.338,68.778,54.666,67.95,54.666z
	 M6.439,28.284l12.924-9.161l12.923,9.161v16.852h-7.578V32.582c0-0.829-0.672-1.5-1.5-1.5h-7.689c-0.828,0-1.5,0.671-1.5,1.5
	v12.554H6.439V28.284z M3,54.666v-6.53h41.271l4.797,6.53H3z M66.45,48.598c0.828,0,1.5,0.671,1.5,1.5c0,0.829-0.672,1.5-1.5,1.5h-1
	c-0.828,0-1.5-0.671-1.5-1.5c0-0.829,0.672-1.5,1.5-1.5H66.45z M60.45,48.598c0.828,0,1.5,0.671,1.5,1.5c0,0.829-0.672,1.5-1.5,1.5
	h-1c-0.828,0-1.5-0.671-1.5-1.5c0-0.829,0.672-1.5,1.5-1.5H60.45z M54.45,48.598c0.828,0,1.5,0.671,1.5,1.5
	c0,0.829-0.672,1.5-1.5,1.5h-1c-0.828,0-1.5-0.671-1.5-1.5c0-0.829,0.672-1.5,1.5-1.5H54.45z M51.109,37.888
	c0.286-0.717,0.822-1.303,1.498-1.662c-0.027-0.119-0.044-0.242-0.044-0.369c0-0.921,0.747-1.668,1.668-1.668
	c0.291,0,0.561,0.081,0.799,0.212c0.901-1.169,2.308-1.928,3.898-1.928c2.189,0,4.042,1.428,4.687,3.401
	c0.108-0.011,0.213-0.033,0.323-0.033c1.369,0,2.541,0.847,3.018,2.046c0.23,0.577-0.221,1.202-0.841,1.202H51.95
	C51.329,39.09,50.879,38.465,51.109,37.888z"/>
</svg>